{
	"asset":{
		"generator":"Khronos glTF Blender I/O v4.0.44",
		"version":"2.0"
	},
	"scene":0,
	"scenes":[
		{
			"name":"Scene",
			"nodes":[
				0
			]
		}
	],
	"nodes":[
		{
			"mesh":0,
			"name":"05deerFinal"
		}
	],
	"materials":[
		{
			"doubleSided":true,
			"name":"Material.120",
			"pbrMetallicRoughness":{
				"baseColorTexture":{
					"index":0
				},
				"metallicFactor":0
			}
		}
	],
	"meshes":[
		{
			"name":"Plane.173",
			"primitives":[
				{
					"attributes":{
						"POSITION":0,
						"NORMAL":1,
						"TEXCOORD_0":2
					},
					"indices":3,
					"material":0
				}
			]
		}
	],
	"textures":[
		{
			"sampler":0,
			"source":0
		}
	],
	"images":[
		{
			"mimeType":"image/png",
			"name":"05deertexture",
			"uri":"05deertexture.png"
		}
	],
	"accessors":[
		{
			"bufferView":0,
			"componentType":5126,
			"count":2260,
			"max":[
				0.3571834862232208,
				2.0505783557891846,
				1.074887752532959
			],
			"min":[
				-0.35718271136283875,
				0.015686960890889168,
				-0.7527769804000854
			],
			"type":"VEC3"
		},
		{
			"bufferView":1,
			"componentType":5126,
			"count":2260,
			"type":"VEC3"
		},
		{
			"bufferView":2,
			"componentType":5126,
			"count":2260,
			"type":"VEC2"
		},
		{
			"bufferView":3,
			"componentType":5123,
			"count":3420,
			"type":"SCALAR"
		}
	],
	"bufferViews":[
		{
			"buffer":0,
			"byteLength":27120,
			"byteOffset":0,
			"target":34962
		},
		{
			"buffer":0,
			"byteLength":27120,
			"byteOffset":27120,
			"target":34962
		},
		{
			"buffer":0,
			"byteLength":18080,
			"byteOffset":54240,
			"target":34962
		},
		{
			"buffer":0,
			"byteLength":6840,
			"byteOffset":72320,
			"target":34963
		}
	],
	"samplers":[
		{
			"magFilter":9729,
			"minFilter":9987
		}
	],
	"buffers":[
		{
			"byteLength":79160,
			"uri":"Deer_1.bin"
		}
	]
}
