{
	"asset":{
		"generator":"Khronos glTF Blender I/O v4.0.44",
		"version":"2.0"
	},
	"scene":0,
	"scenes":[
		{
			"name":"Scene",
			"nodes":[
				0
			]
		}
	],
	"nodes":[
		{
			"mesh":0,
			"name":"17horseFinal"
		}
	],
	"materials":[
		{
			"doubleSided":true,
			"name":"Material.089",
			"pbrMetallicRoughness":{
				"baseColorTexture":{
					"index":0
				},
				"metallicFactor":0
			}
		}
	],
	"meshes":[
		{
			"name":"Cube.009",
			"primitives":[
				{
					"attributes":{
						"POSITION":0,
						"NORMAL":1,
						"TEXCOORD_0":2
					},
					"indices":3,
					"material":0
				}
			]
		}
	],
	"textures":[
		{
			"sampler":0,
			"source":0
		}
	],
	"images":[
		{
			"mimeType":"image/png",
			"name":"17horsetexture",
			"uri":"17horsetexture.png"
		}
	],
	"accessors":[
		{
			"bufferView":0,
			"componentType":5126,
			"count":1982,
			"max":[
				0.2675652801990509,
				1.8641561269760132,
				1.303043007850647
			],
			"min":[
				-0.2675653398036957,
				-0.008337585255503654,
				-0.7866942286491394
			],
			"type":"VEC3"
		},
		{
			"bufferView":1,
			"componentType":5126,
			"count":1982,
			"type":"VEC3"
		},
		{
			"bufferView":2,
			"componentType":5126,
			"count":1982,
			"type":"VEC2"
		},
		{
			"bufferView":3,
			"componentType":5123,
			"count":2970,
			"type":"SCALAR"
		}
	],
	"bufferViews":[
		{
			"buffer":0,
			"byteLength":23784,
			"byteOffset":0,
			"target":34962
		},
		{
			"buffer":0,
			"byteLength":23784,
			"byteOffset":23784,
			"target":34962
		},
		{
			"buffer":0,
			"byteLength":15856,
			"byteOffset":47568,
			"target":34962
		},
		{
			"buffer":0,
			"byteLength":5940,
			"byteOffset":63424,
			"target":34963
		}
	],
	"samplers":[
		{
			"magFilter":9729,
			"minFilter":9987
		}
	],
	"buffers":[
		{
			"byteLength":69364,
			"uri":"Horse_1.bin"
		}
	]
}
